# xmcd CD database file
#
# Track frame offsets:
#	151
#	14427
#	27044
#	40896
#	55578
#	82051
#	94791
#	116845
#	134759
#	148176
#
# Disc length: 2189 seconds
#
# Revision: 0
# Processed by: cddbd v1.5.1PL0 Copyright (c) Steve Scherf et al.
# Submitted via: CDex 1.51
#
DISCID=8a088b0a
DTITLE=Sylvie Martel - Souvenirs d'un vieillard
DYEAR=1900
DGENRE=Country
TTITLE0=Un jour à la fois
TTITLE1=Marin
TTITLE2=Le ciel, le soleil, la mer
TTITLE3=Ce n'est qu'un rêve
TTITLE4=Souvenir d'un vieillard
TTITLE5=Un jour mon rêve
TTITLE6=Valses Medley
TTITLE7=Mon village
TTITLE8=L'amour est bleu
TTITLE9=Chanter l'amour
EXTD=
EXTT0=
EXTT1=
EXTT2=
EXTT3=
EXTT4=
EXTT5=
EXTT6=
EXTT7=
EXTT8=
EXTT9=
PLAYORDER=
